<?xml version="1.0" encoding="iso-8859-1"?>
<!-- Generator: Adobe Illustrator 19.0.0, SVG Export Plug-In . SVG Version: 6.00 Build 0)  -->
<svg version="1.1" id="Capa_1" xmlns="http://www.w3.org/2000/svg" xmlns:xlink="http://www.w3.org/1999/xlink" x="0px" y="0px"
	 viewBox="0 0 512.024 512.024" style="enable-background:new 0 0 512.024 512.024;" xml:space="preserve">
<g>
	<g>
		<path d="M357.804,74.072c-27.52-27.104-63.68-42.048-101.792-42.048c-79.392,0-144,64.608-144,144v224c0,8.832,7.168,16,16,16h32
			c8.832,0,16-7.168,16-16c0-8.832-7.168-16-16-16h-16v-208c0-61.76,50.24-112,112-112c29.664,0,57.856,11.648,79.168,32.672
			c21.184,21.472,32.832,49.632,32.832,79.328v208h-16c-8.832,0-16,7.168-16,16c0,8.832,7.168,16,16,16h32c8.832,0,16-7.168,16-16
			v-224C400.012,137.88,385.068,101.72,357.804,74.072z"/>
	</g>
</g>
<g>
	<g>
		<path d="M288.012,384.024h-64c-8.832,0-16,7.168-16,16c0,8.832,7.168,16,16,16h64c8.832,0,16-7.168,16-16
			C304.012,391.192,296.844,384.024,288.012,384.024z"/>
	</g>
</g>
<g>
	<g>
		<path d="M224.012,384.024c-8.832,0-16,7.168-16,16v64c0,8.8-7.168,16-16,16c-8.832,0-16-7.2-16-16v-64c0-8.832-7.168-16-16-16
			c-8.832,0-16,7.168-16,16v64c0,26.464,21.536,48,48,48c26.464,0,48-21.536,48-48v-64
			C240.012,391.192,232.844,384.024,224.012,384.024z"/>
	</g>
</g>
<g>
	<g>
		<path d="M352.012,384.024c-8.832,0-16,7.168-16,16v64c0,8.8-7.2,16-16,16s-16-7.2-16-16v-64c0-8.832-7.168-16-16-16
			c-8.832,0-16,7.168-16,16v64c0,26.464,21.536,48,48,48s48-21.536,48-48v-64C368.012,391.192,360.844,384.024,352.012,384.024z"/>
	</g>
</g>
<g>
	<g>
		<path d="M64.012,160.024c-8.832,0-16,7.168-16,16v160c0,8.832,7.168,16,16,16c8.832,0,16-7.168,16-16v-160
			C80.012,167.192,72.844,160.024,64.012,160.024z"/>
	</g>
</g>
<g>
	<g>
		<path d="M448.012,160.024c-8.832,0-16,7.168-16,16v160c0,8.832,7.168,16,16,16c8.832,0,16-7.168,16-16v-160
			C464.012,167.192,456.844,160.024,448.012,160.024z"/>
	</g>
</g>
<g>
	<g>
		<path d="M384.012,160.024h-256c-8.832,0-16,7.168-16,16c0,8.832,7.168,16,16,16h256c8.832,0,16-7.168,16-16
			C400.012,167.192,392.844,160.024,384.012,160.024z"/>
	</g>
</g>
<g>
	<g>
		<path d="M183.692,72.632l-42.24-65.28c-4.8-7.456-14.72-9.568-22.112-4.768c-7.424,4.8-9.568,14.72-4.768,22.112l42.24,65.28
			c3.04,4.736,8.192,7.328,13.44,7.328c3.008,0,5.984-0.832,8.672-2.56C186.348,89.944,188.492,80.024,183.692,72.632z"/>
	</g>
</g>
<g>
	<g>
		<path d="M392.108,2.2c-7.52-4.448-17.408-1.952-21.888,5.696l-39.68,67.52c-4.48,7.648-1.92,17.44,5.696,21.92
			c2.528,1.504,5.312,2.208,8.096,2.208c5.472,0,10.816-2.848,13.792-7.904l39.68-67.52C402.284,16.472,399.724,6.68,392.108,2.2z"
			/>
	</g>
</g>
<g>
	<g>
		<path d="M288.652,96.024h-0.32c-8.864,0-15.84,7.168-15.84,16c0,8.832,7.328,16,16.16,16c8.832,0,16-7.168,16-16
			C304.652,103.192,297.484,96.024,288.652,96.024z"/>
	</g>
</g>
<g>
	<g>
		<path d="M224.652,96.024h-0.32c-8.832,0-15.84,7.168-15.84,16c0,8.832,7.328,16,16.16,16c8.832,0,16-7.168,16-16
			C240.652,103.192,233.484,96.024,224.652,96.024z"/>
	</g>
</g>
<g>
</g>
<g>
</g>
<g>
</g>
<g>
</g>
<g>
</g>
<g>
</g>
<g>
</g>
<g>
</g>
<g>
</g>
<g>
</g>
<g>
</g>
<g>
</g>
<g>
</g>
<g>
</g>
<g>
</g>
</svg>
