<svg version="1" xmlns="http://www.w3.org/2000/svg" width="788" height="788" viewBox="0 0 591.000000 591.000000"><path d="M311.4 17.9c-.2.2-.4 6.1-.4 13.1 0 6.9-.3 13-.7 13.5-.5.6-.4.7.1.2.6-.4 7-.7 14.3-.7H338V18.1l-13.1-.3c-7.2-.2-13.3-.1-13.5.1zM340.8 49.7l-.3 16.8 15-.2c8.3-.1 15.6-.3 16.3-.3.9 0 1.2-4 1.2-16.5V33h-31.9l-.3 16.7z"/><path d="M303 61.4v12.3l-4.7 1.8c-2.7 1-5 2.1-5.3 2.5-1.1 1.6-11.2 6-12.2 5.4-.6-.4-.8-.3-.5.3.6 1-5 4-6.5 3.5-.5-.1-.8.3-.8.9 0 .6-.7.8-1.6.5-.8-.3-1.3-.2-1 .3.3.5-5.7 4.1-13.4 8-7.7 3.9-14 6.9-14 6.5 0-.3-.8.2-1.7 1.2-1.7 1.7-1.8.6-2.3-22.2-.5-25.5-.8-27.1-5.7-29.3-3-1.4-3.5-1.4-7 .1-1.5.6-3.1 1.1-3.4 1-1-.2-1.1 2-1.6 31.9l-.4 29.6-2.5 1.2c-1.4.6-3 .8-3.6.5-.6-.4-.8-.2-.5.3.9 1.4-2.2 2.6-3.7 1.4-.6-.5-6.6-3.7-13.3-7.2-6.7-3.5-11.9-6.7-11.6-7.3.3-.5.1-.6-.5-.2-.6.3-6.5-2.2-13.1-5.7-6.6-3.6-13-6.7-14.2-7-3-.8-8.7 1.9-9.5 4.5-.8 2.5-1.1 9.7-.4 9.5.3-.1 2.5 1 5 2.4 2.5 1.5 7.2 4.1 10.5 5.9 3.3 1.8 6.3 3.8 6.7 4.4.4.6.8.7.8.3 0-.4 3.6 1.1 8 3.4 4.4 2.2 7.7 4.5 7.4 5-.3.5.3.6 1.2.2 1.3-.5 1.5-.3.9.7-.5.9-.4 1.1.3.6.7-.4 1.9-.3 2.8.2.9.5 1.3 1.2.8 1.4-8.2 4.7-12.7 6.8-13.6 6.2-.7-.5-.8-.3-.3.6.6 1 .4 1.2-.9.7-.9-.4-1.5-.3-1.2.1.2.4-8.6 5.4-19.7 11.1-11.2 5.7-21.8 11.9-23.9 13.9-2 1.9-4.1 3.1-4.6 2.8-.6-.3-1.4-.2-1.7.4-.4.6-.3.9.2.8 1.5-.5 1.6.7.3 4.6-1.8 5.6-.7 13.2 2.9 20 1.7 3.1 2.8 6.2 2.5 6.8-.5.7-.2.8.6.3 1-.6 1.2-.4.7.9-.5 1.1-.3 1.5.5 1s.9-.2.5 1c-.4.9-.3 1.5.1 1.2.4-.2 2.9 3.7 5.4 8.7 2.6 5.1 8.6 16.5 13.3 25.5 4.7 9 8.2 16.8 7.9 17.4-.4.6-.2.8.3.5.6-.4 1.6.6 2.2 2.1.6 1.5 4.4 8.9 8.5 16.4 4 7.5 6.8 13.6 6.2 13.5-.8-.1-1.2 22.6-1.6 78.6-.3 43.3-.2 78.7.1 78.7.4 0 .9 1.7 1.3 3.8.7 5 7.2 15 12.2 18.8 5 4 7.4 5.2 13.5 7l4.9 1.5v19.3c0 10.6.5 21.7 1 24.6 2.1 11 8.2 18.9 18.4 23.6 6.5 3 15.4 3.2 22.7.4 2.9-1 5.6-1.7 6.1-1.4.5.3.7.2.6-.3-.2-.5 1.4-2.4 3.4-4.2 2.1-1.8 5.2-6.1 6.9-9.6l3.1-6.4.2-23 .1-23.1h31.4l.3 23.7c.3 22.5.4 24.1 2.6 28.5 3 6 9 12.1 15 15 6.3 3 16.3 3.6 23.1 1.3 6.4-2.1 14.4-9.2 17.9-15.9 2.7-5.1 2.7-5.3 3-28.7l.4-23.7 4.6-.7c6.6-.9 14.3-4.6 19.5-9.4 3.5-3.3 4.6-3.8 5.7-2.8 1.2 1 1.2.9.1-.5-1-1.4-1-2.1.2-3.8.7-1.1 1.7-1.7 2.2-1.2.5.4.5.2.1-.5s.1-2.7 1.1-4.5c1.7-3.1 1.8-8.6 2.1-84l.3-80.7-14.6-.3c-8-.2-14.5-.6-14.5-1.1 0-.4.3-.8.8-.9 1.1-.3 3.2-4.8 3.2-6.8 0-1-1.1-3.2-2.5-4.8-1.3-1.6-2.1-3.2-1.8-3.6.4-.4 0-.4-.9-.1-.8.3-2.2 0-2.9-.7-1.5-1.4-10.9-1.8-10.9-.6 0 .5-.6.8-1.4.8-.7 0-1.9.7-2.6 1.5-.9 1.1-1.6 1.2-2.6.4-1-.8-1.2-.7-1 .8.3 1.1-.4 2.5-1.6 3.2-1.1.7-1.7.8-1.3.2.3-.6.1-1.1-.4-1.1-.6 0-1 .8-.9 1.7.3 4.5-.3 8.7-1.1 7.5-.7-1.1-.9-1-1.4.3-.4.9-.3 1.4.1 1.1.4-.2 1.6.2 2.7 1 1.8 1.3 1.6 1.4-1.6 1.4-1.9 0-4.9-.4-6.7-.9-2.1-.6-4.3-.6-6.2.1-2.3.8-3.4.7-4.7-.3-1.2-1-1.5-1-.9-.2.4.7.2 1.3-.3 1.3-.6 0-1.1-.4-1.1-.8 0-1.2 4-4.8 4.9-4.4.3.2.8-.5 1-1.5.1-1 .9-2.5 1.6-3.3.6-.8 1.5-2.2 1.9-3 .4-.8 0-.6-.8.4-1.6 2-2.1 1.3-1.7-2.2.1-.7-.4-1.1-1.1-1-.7.2-1.2-.3-1-1 .1-.6-.6-1.2-1.7-1.2-1 0-2.4-.7-3.1-1.5-1.4-1.7-9.1-2-12-.5-1.6.9-1.8.8-1.3-.6.4-1.2.3-1.5-.5-1-.7.4-1.2 1.4-1.2 2.2 0 1.1-.6 1.3-2.2.8-1.3-.3-2-.3-1.5.2.4.4-.7 2.3-2.5 4.1-2.4 2.4-3.2 4.3-3.4 7.3-.1 2.1.1 3.8.5 3.7.3-.1.7.2.8.7.1.5.7 1.3 1.5 1.7.9.6.5.8-1.2.7-1.4-.2-3.1-1-3.8-1.8-.8-.8-1.1-1-.8-.3.4.7-.5.6-2.5-.4-3.5-1.7-14.2-1.2-23.6 1.3-3 .8-9.6 1.4-14.8 1.4-8.4 0-9.6-.2-10.7-2-.7-1.1-1.7-2-2.2-2-.5 0-.1.9.9 2 1.8 1.9 1.7 2-.4 2-1.3 0-3.5-1.3-5-2.9l-2.7-2.8-3.9 2.7-4 2.8-22.8.2c-16.4 0-22.7-.2-22.2-1 .4-.6 1.4-.9 2.3-.5.9.3 1.3.3.9-.2-.5-.4 1.6-1.9 4.5-3.3 2.9-1.5 13.7-7 23.9-12.3 10.2-5.3 18.9-9.4 19.2-9 .4.3.7.1.7-.5 0-.5 3.5-2.8 7.8-5 16.1-8.1 47.7-24.5 53.7-27.8 3.4-1.9 6.5-3.1 6.8-2.7.4.3.7.1.7-.6 0-.8.6-1.1 1.6-.7.8.3 1.3.2 1-.2-.7-1.1 14.3-8.4 15.6-7.6.6.4.8.3.5-.3-.4-.6 2.3-2.6 6.1-4.6 3.7-1.9 13.8-7.1 22.4-11.6 8.7-4.5 16.3-7.9 17-7.5.6.4.8.3.5-.2-.3-.5 1.9-2.3 4.9-3.9 6.1-3.3 6.1-3.3 1.3-12.8-1.7-3.2-2.7-6.3-2.3-6.9.4-.6.3-.8-.3-.5-.5.3-3.6-4.4-6.8-10.6-3.2-6.2-8.7-16.7-12.2-23.4-3.6-6.8-6.1-12.8-5.7-13.4.4-.7.3-.9-.2-.6-.8.5-18.4-31.7-18.4-33.7 0-.3 2.5-.6 5.5-.6h5.5V49h-36v12.4zM383.7 92.8c.2 1 1.1 1.9 1.9 1.9 1.1 0 1.1-.4-.3-1.9-.9-1-1.7-1.8-1.9-1.8-.1 0 0 .8.3 1.8z"/><path d="M387.9 92.4c.9 1.1.9 1.6-.1 2.2-2.5 1.6-4.8 1.4-4.9-.4 0-1.1-.2-1.2-.6-.4-.3.7 0 1.9.6 2.6 1.4 1.7-.5 2.6-5.2 2.6h-3.2l4 3.5c2.9 2.5 4.6 3.3 6 2.8 1.1-.4 2.9-.7 4-.7 1.1-.1 2.5-.8 3.2-1.6 1-1.3 1.2-1.3 1.8.2.4 1 1.1 1.8 1.7 1.8.5 0 .6-.6.2-1.3-.4-.6.2-.4 1.4.7 1.2 1 1.9 2.2 1.7 2.6-.5.8 6.6 6.6 7.6 6.3 1-.3 6.8 6.1 6.6 7.2-.1.5.7 1.1 1.8 1.3 1.7.3 1.8.1.5-.8-1.2-1-1.1-1.1.7-.7 1.3.3 2.6.1 2.9-.4.3-.5 1.6-.9 3-.9 1.3 0 2.4-.4 2.4-.8 0-1.2-3.1-4.4-5.5-5.9-1.1-.6-1.8-1.7-1.7-2.5.2-.7 0-1-.4-.6-1.1 1.2-3.4-1.1-2.7-2.8.3-1 0-1.2-1-.8-1 .3-1.7-.2-2.1-1.4-.4-1.1-1.4-2.3-2.2-2.6-.8-.3-1.3-1-1-1.5.4-.5-.2-.8-1.1-.6-2 .3-7.5-4.3-6.7-5.6.2-.4 0-1-.6-1.4-.5-.3-1-.1-1 .4 0 .6-1.8 1.1-4 1.1s-4-.4-4-.9-.7-1.2-1.6-1.5c-1.4-.5-1.5-.4-.5.8z"/><path d="M404.5 96c.6 1 .4 1.2-.8.7-2.1-.8-2.2-.3-.3 1.2 1 .9 1.5.8 1.9-.3.4-.9.1-1.8-.5-2.2-.7-.5-.8-.2-.3.6zM423.3 102.5c-1.6 1.3-1.6 1.4-.1 1.5.9 0 2 .4 2.3 1 .4.6-.1.7-1.2.3-1-.3-1.5-.3-1.1.1.3.4 4.2.9 8.5 1.1 4.3.2 8.5.4 9.3.5 2.1.3 6.1 4.1 5.4 5.1-.5.8 1 1.3 2.9 1 .5-.1.6.2.3.7-.9 1.5 4.4 3.7 8.7 3.7 3 0 4.1.4 4.3 1.7.1 1.3-.9 2.1-3.9 3-5.3 1.5-5.5 1.5-6.8 1.7-.5 0-.7.6-.3 1.2.5.8.9.8 1.4-.1.5-.8.9-.7 1.3.4.4.9 1.2 1.6 1.9 1.6.9 0 .8-.3-.2-1-.8-.5-1.1-1-.6-1 .5 0 1.8.8 2.9 1.7 1.6 1.6 2 1.6 3 .3.7-.8 2.6-2.3 4.3-3.2 2.9-1.6 3.1-1.6 4.6.2.9 1 1.4 2.1 1.1 2.3-.2.3.5.8 1.6 1.2 1.2.3 2.1 1.3 2.1 2.1 0 1.7 1.2 1.8 2.7.3.7-.7 1.3-.7 1.7-.1.8 1.3-.3 4.2-1.5 4.2-.5 0-.9 1.2-1 2.7l-.1 2.8-.8-2.5c-.7-2.3-.8-2.3-.9-.3-.1 1.2.3 2.4.8 2.7.9.6 0 5.5-1.6 9.6-1 2.6-1.2 4-.3 3.5.5-.3 1-.1 1.2.5.2.6 1.3 1.2 2.4 1.4 1.8.4 2.1.1 1.6-1.6-.3-1.3-.1-1.9.5-1.5.5.3.8-.5.5-2.2-.2-1.7.2-3.2 1.2-4 1.4-1.1 1.6-1.1 1.6.4 0 1 .3 1.5.7 1.2 1-1.1 3.3 1.4 3.3 3.7 0 1.6.2 1.8.9.7.8-1.2 1.2-1.2 2.5-.2.9.7 1.3 1.7 1 2.2-.3.5-.1.9.4.9.6 0 1.2-1.6 1.4-3.5.2-1.9.1-3.5-.3-3.5s-.6-1.8-.5-3.9c0-2.2-.1-3.8-.3-3.5-.6.6-3.1-1.7-3.1-2.8 0-.5.5-.6 1-.3.6.3 1 .1 1-.5s-1-.8-2.6-.4c-1.9.5-2.5.4-2-.5.4-.6.1-1.1-.7-1.1-1.9 0-4.9-3.4-4-4.5.5-.4.3-.5-.3-.2-.7.4-1.5 0-1.8-.9-.3-.8-.2-1.2.4-.9.7.5 3-2.3 3-3.8 0-.5-3.1-1.6-6.5-2.3-1-.3-2.9-1.1-4.2-1.9-1.2-.8-3.3-1.5-4.5-1.5-1.7 0-1.9-.3-.9-.9 1.1-.7.9-1-.8-1.6-1.2-.4-4.5-2.9-7.2-5.7-2.7-2.7-4.9-4.7-4.9-4.4 0 .3-2.1-.2-4.7-1-7.1-2.2-8.1-2.4-16.5-2.8-5.5-.3-8.1-.1-9.5.9zM419 107.4c0 .2.7.6 1.5 1 .8.3 1.5.1 1.5-.4 0-.6-.7-1-1.5-1s-1.5.2-1.5.4z"/><path d="M463 111.4c0 .2.8 1 1.8 1.7 1.5 1.3 1.6 1.2.3-.4s-2.1-2.1-2.1-1.3zM406.7 116.5c-.4.8-.1 1.7.5 2.1.7.5.8.2.3-.6-.6-1-.4-1.2 1-.6 1.5.5 1.6.4.5-.9-1.5-1.9-1.6-1.9-2.3 0zM424.7 117.1c.6 2.3.9 2.4 1.6.5.3-.8 0-1.7-.7-1.9-1-.4-1.2.1-.9 1.4zM476.5 118c-.3.5-.1 1 .4 1 .6 0 1.1-.5 1.1-1 0-.6-.2-1-.4-1-.3 0-.8.4-1.1 1zM421.5 121c.4.6 1.1.8 1.6.5 1.4-.9 1.1-1.5-.7-1.5-.8 0-1.2.5-.9 1zM429.2 122.2c-2.9.5-5 1.3-4.7 1.8.3.4 1.5.6 2.8.4 1.2-.2 1.6-.2 1 .2-.7.3-1.3 1.4-1.3 2.4s-.5 2.2-1.2 2.6c-.6.4-.8.3-.5-.3.4-.6-.3-1.9-1.6-2.9-2.2-1.9-2.2-1.9-.5.2 1.6 1.8 1.6 2.2.2 4.3-1.5 2.1-1.5 2.3.2 3.6 1.1.7 2 1.8 2 2.4.3 2.2.4 2.2 2 .7.8-.9 1.9-1.4 2.4-1.1.5.3 1.2 0 1.6-.6.5-.8.3-.9-.7-.4-.8.4-.3-.3 1.1-1.6 3-3 4.9-2.7 4.5.9-.3 2.4-.2 2.5 1.1.7.8-1 1.5-1.6 1.5-1.2.1.4.2 1.1.3 1.6 0 .6.7 1.6 1.5 2.3 1.2 1.1 1.3 1 .6-.2-.8-1.3-.7-1.3.9-.1 2.2 1.8 4.7 6.6 3.9 7.5-.4.3 0 .6.8.7.8 0 3.2.3 5.3.5 3.4.4 4.3.1 6.3-2.2 2.6-3.1 2.8-4 1.1-5-.7-.4-.8-.3-.4.4s.2 1.2-.3 1.2c-.6 0-1.1-.7-1.1-1.7 0-.9-.3-1.4-.6-1-1 .9-4.7-3-4-4.2.4-.6.1-.9-.6-.6-2.4 1-8-6.7-5.7-7.9.5-.2.4-.3-.3-.2-.7.2-1.2.9-1 1.6.1.6-.3 1-1 .8-.7-.3-1.3-1-1.3-1.6 0-.7-.3-1.2-.7-1.2-.5 0-1.8-.9-3-2-2.4-2.2-2.8-2.2-10.6-.8zm20.8 23c0 .6-.7.5-1.5-.2s-1.5-1.7-1.5-2.2c0-.6.7-.5 1.5.2s1.5 1.7 1.5 2.2zM484 124c0 .5.5 1 1.1 1 .5 0 .7-.5.4-1-.3-.6-.8-1-1.1-1-.2 0-.4.4-.4 1zM463 127.4c0 .2.7.6 1.5 1 .8.3 1.5.1 1.5-.4 0-.6-.7-1-1.5-1s-1.5.2-1.5.4z"/><path d="M448 129c0 .5.5 1 1.1 1 .5 0 .7-.5.4-1-.3-.6-.8-1-1.1-1-.2 0-.4.4-.4 1zM470 129c.8.5 2.2.9 3 .9 1 0 .8-.3-.5-.9-2.7-1.2-4.3-1.2-2.5 0zM484.6 129.9c.4 1.7.3 2.1-.6 1.6-.9-.6-1.1-.4-.5.4.5.9 1.1.9 1.7.3.7-.7.6-1.6-.1-2.9-1.1-1.6-1.1-1.5-.5.6zM454.5 135c-.3.5.1 1 1 1s1.3-.5 1-1c-.3-.6-.8-1-1-1-.2 0-.7.4-1 1zM415.8 139.2c-1.5 2.3-1.5 2.4.5 2.3 1.4-.1 3.1 1.1 4.9 3.6 1.5 2 3.2 4 3.8 4.4.7.4.7 1.1.2 1.8-.6.8-.2 1.8 1 2.9 1 1 1.8 1.3 1.8.7 0-.5.4-.8 1-.4.5.3.6 1.3.3 2.2-.4 1.1-.3 1.4.5.9 1.6-1 1.5 1.2-.3 4.9-1.1 2.5-2.1 2.1-1.6-.8.1-.5-.3-.6-.8-.3-.6.4-.6 1.8-.1 3.5.5 1.8.3 4.8-.6 8.1-1.1 4.5-1.1 5.7.1 8.7.8 1.9 1.2 4 .8 4.7-.3.6-.3.8.2.4 1-1 3.7 1.1 2.9 2.3-.3.5.3.6 1.2.2 1.3-.5 1.5-.3.9.7s-.4 1.2.8.7c1.9-.7 5 2 4.1 3.5-.4.7-.2.8.5.4.6-.4.9-1.1.6-1.6-1.4-2.3 4.8-3.6 7.4-1.6 1.2.9 1.3.8.6-.4-1.5-2.4-1.3-4.9.6-6.9 1-1 1.5-2.1 1.2-2.4-.3-.3-.1-1.2.3-1.9s.7-2.7.5-4.4c-.2-2.5.2-3.2 2-3.7 2.5-.7 5.9.8 5.9 2.5 0 .6-.7.5-1.7-.3-1.5-1.1-1.4-1 .1.9 2 2.3 3.2 3 2.1 1.2-.3-.6.3-1 1.5-1 1.4 0 2.1-.6 1.9-1.8-.3-2 1.1-7.2 1.8-7.2.3 0 1.6 1 2.9 2.2 1.2 1.3 4.6 4.3 7.4 6.8 2.8 2.5 5.7 5.7 6.5 7.2 1.2 2.5 1.1 2.9-.3 3.8-1.6.9-1.6.9.1 1 .9 0 1.7-.5 1.7-1.1 0-.5.6-.7 1.3-.3.9.5.9.4 0-.6-1.4-1.5.6-4.3 2.2-3 .6.5 1.1-1 1.2-4.1.1-2.8-.2-4.9-.8-4.9-.6 0-.8-.4-.4-.9.3-.5-.4-1.2-1.5-1.6-2-.7-2.8-2.5-1-2.5.6 0 1-.5 1-1.2s-.7-.5-1.8.5c-1.6 1.5-2.1 1.2-7.3-3.8-3.1-3-5.5-5.6-5.3-5.8.2-.2-.6-1.2-1.8-2.3-2.2-1.9-2.3-1.9-.9.1.8 1.1-.2.3-2.2-1.7-2-2.1-3.8-3.4-4.1-2.9-.4.5-1.6.7-2.9.3-2-.5-2.1-.4-.8 1.1 1.2 1.5 1.2 1.7-.2 1.1-1.4-.5-1.5-.1-.7 2.6 1.1 3.9.2 9.8-1.2 7.8-.6-.9-.7-.6-.3.9 1.5 5.5-5.3 8.9-7.7 3.8-.6-1.4-1.5-2.5-2-2.5s-.7-.4-.4-.9c.3-.5-.6-1.6-2-2.6-1.4-.9-2.3-2.2-2.1-2.9.3-.7.1-1.9-.5-2.7-.8-1.1-.9-1-.4.4.3 1.1.2 1.6-.4 1.2-.6-.3-1-1.2-1-1.9 0-.8-.9-1.6-2-1.9-1.4-.3-1.8-1-1.4-2.1.5-1.4.9-1.4 2.3-.4 1.1.9 1 .5-.3-1-1.5-1.7-2.2-1.9-3.3-1.1-1.2 1.1-1.7.5-1.4-1.4.1-.5-.3-.6-.8-.2-.6.3-2-.9-3.3-2.6-1.3-1.7-3.6-3.7-5.1-4.5-1.6-.9-2.5-2-2.1-2.6.4-.6.3-.8-.4-.4-.5.3-1.2.1-1.4-.5-.2-.7-1.1-.1-2 1.3z"/><path d="M408.5 140.9c.2 1.4-.1 1.8-1 1.4-1.2-.4-1.4 1.6-1.1 12 .2 6.8.6 12.9 1 13.6.4.6.2 1.1-.5 1.1s-1 .3-.7.6c1.6 1.5 4.5-1.7 4.6-5.1.1-2 .5-4.2 1-5.1.7-1.3 1.1-1.2 2.7.6 1 1.1 1.3 2 .7 2-.7 0-1.2-.5-1.2-1 0-.6-.5-1-1-1-.7 0-.7.7 0 2 .6 1.1.8 2.5.5 3-.4.6-.1.9.7.8.7-.2 1.2.5 1.2 1.4-.1 1 .2 1.5.8 1.2.5-.3 1.7 0 2.6.7.9.7.5 0-1-1.7-3.2-3.4-3.5-4.4-1.2-4.4.8 0 1.3.4 1 .9-.3.4.2 1.5 1.2 2.4 1.6 1.5 2.1 1.7 4.1 1.7.5 0 1.1.8 1.3 1.7.3 1 .6-.5.7-3.2.6-8.5.4-10.6-.8-11.8-.9-.9-1.1-.8-.5.8.7 2 .7 2-.9 0-1.1-1.5-1.2-2.2-.4-2.8.8-.6.5-.6-.7-.3-2.1.7-5.6-1.9-5.6-4.1 0-.7-.4-1.2-.9-1.1-.5.2-1.7-.6-2.6-1.7-.9-1.1-1.3-1.4-.9-.6.5.9.3 1.2-.4.7-.7-.4-1.2-1.8-1.2-3.1s-.4-2.6-.9-3c-.6-.3-.8.3-.6 1.4z"/><path d="M411 140.2c0 .9.8 2.2 1.8 2.9 1.6 1.3 1.6 1.3.2-.5-.8-1.1-1.3-2.1-1.2-2.3.2-.3.1-.7-.2-1.1-.3-.3-.6.2-.6 1zM427.6 139.9c-.4.7-.5 1.5-.2 1.8.9.9 1.9-.4 1.4-1.8-.4-1.1-.6-1.1-1.2 0zM442.5 142c1 1.1 2 2 2.2 2 .2 0-.2-.9-.9-2s-1.7-2-2.2-2c-.5 0-.1.9.9 2zM416.2 144.9c-1.1.7-1 .9.3 1.5.9.3 1.3 1.1.9 1.7-.4.8-.3.9.5.5.8-.6.9-1.2.2-2-.6-.7-.8-1.6-.4-1.9.9-1 .1-.8-1.5.2zM427.5 144.9c-.3.5-.2 1.2.3 1.5.5.3.9-.1.9-.9 0-1.7-.3-1.9-1.2-.6zM460.6 146.3c.3 1 .9 1.5 1.2 1.2.3-.3 0-1.1-.7-1.8-1-.9-1.1-.8-.5.6zM422 148.9c0 1 1.9 2.5 2.5 2 .1-.2-.3-1-1.1-1.7s-1.4-.8-1.4-.3zM488.7 152.5c-.4.8-.3 1.6.1 1.9.4.3.9-.4.9-1.5.2-2.3-.3-2.5-1-.4zM471 158.2c0 2.3 1.9 3.3 3.3 1.8.9-1 .9-1.1 0-.6-.6.3-1.6-.2-2.2-1.1-.9-1.6-1-1.6-1.1-.1zM478.9 165.7c-1.3 1.6-1.2 1.7.4.4.9-.7 1.7-1.5 1.7-1.7 0-.8-.8-.3-2.1 1.3zM421.6 169.3c.3 1 .9 1.5 1.2 1.2.3-.3 0-1.1-.7-1.8-1-.9-1.1-.8-.5.6zM447.5 169c-.3.5-.1 1 .4 1 .6 0 1.1-.5 1.1-1 0-.6-.2-1-.4-1-.3 0-.8.4-1.1 1zM410.5 170c-.3.5-.1 1 .4 1 .6 0 1.1-.5 1.1-1 0-.6-.2-1-.4-1-.3 0-.8.4-1.1 1zM462 170c0 .5.5 1 1.1 1 .5 0 .7-.5.4-1-.3-.6-.8-1-1.1-1-.2 0-.4.4-.4 1zM400.4 172.1c-.3.6-1.6.8-2.9.5-1.6-.4-2.5-.1-2.9 1-.4.9-1.3 1.4-2.2 1-.8-.3-1.2-.2-.9.4.3.5-.4 1.4-1.5 2-1.1.6-2 1.5-2 2.1 0 .6-1.1 2.5-2.5 4.3-2.9 3.8-3.3 9.1-.9 10 .9.3 1.4 1.3 1.1 2-.3.8.2 2 1.1 2.8 1.3 1.1 1.4 1.1.7-.1-.6-1.1-.4-1.3.9-.8 1 .4 2 .7 2.2.7.3 0 .2.5-.2 1.2-.4.6-.3.8.3.5.5-.3 2.6-.2 4.6.3 2.5.5 3.5.5 3-.3-.4-.6 0-.8 1-.4s1.6.2 1.4-.6c-.1-.7.6-1.1 1.7-.9 1.2.2 1.6-.1 1-.9-.5-.8-.2-1.1.8-.6 1.6.6 3.8-1 3.8-2.8 0-.5-.5-.3-1 .5s-1 1-1 .4 1.1-2.1 2.5-3.4c1.3-1.2 2.2-2.7 1.8-3.2-.3-.6.5-.4 1.8.2 2.3 1.2 2.3 1.2.7-.6-.9-1-2-3.3-2.4-4.9-.6-2.8-5.4-9.2-7.1-9.8-.5-.1-.7-.5-.5-1 .3-1.1-1.6-.8-2.4.4zM407.5 175c1 1.1 2 2 2.3 2 .3 0-.3-.9-1.3-2s-2-2-2.3-2c-.3 0 .3.9 1.3 2zM451.5 179.9c.3.5.1 1.2-.4 1.6-.6.3-.7 1.3-.4 2.2.5 1.2.3 1.4-.7.8-1-.6-1.2-.4-.7.8.3.9.1 1.9-.4 2.3-.6.3-.8 1.6-.5 2.7.3 1.2-.2 4.5-1 7.4-.8 2.9-1.3 5.7-.9 6.3.3.5 0 1-.7 1-.9.1-.7.5.4 1.4 1 .7 1.5 1.6 1.1 2-.4.4.1.4 1.1 0 1.2-.4 1.4-.9.6-1.4-1.5-.9.9-2.8 3.3-2.5.9.2 1.5-.1 1.1-.6-.3-.5-1-.7-1.5-.4-.5.4-.9-.1-.9-.9 0-.9.7-1.6 1.5-1.6s1.5-.7 1.5-1.5.3-1.5.6-1.5c1 0 3.4 2.8 3.4 4 0 .6.4.9.8.6.4-.2 1.9.5 3.2 1.6 1.4 1.1 1.9 1.6 1.1 1.2-.9-.5-1.2-.3-.7.4.4.7 1.6 1.2 2.7 1.2s1.7-.5 1.4-1c-.9-1.4.8-1.2 2.5.2 1.2 1.1 1.2 1 0-.5-1-1.4-1-2.1-.2-2.9 2-2 1.4-3.7-2.5-7.5-2.1-1.9-3.2-3.2-2.6-2.9.9.5 1.1.2.6-.9-.4-1.3-.8-1.4-1.4-.4-.6 1-2.3-.1-6.3-3.9-3-2.8-5-5.4-4.5-5.7 1.2-.8 1.1-2.5-.2-2.5-.5 0-.8.4-.4.9zM423.6 182.7c-1.1 1.1-.7 2 .9 2 .8 0 1.5-.4 1.5-.8 0-1.1-1.6-2-2.4-1.2z"/><path d="M456 184.5c.7.9 1.5 1.3 1.7 1.1.7-.7-.7-2.6-1.9-2.6-.6 0-.6.6.2 1.5zM458 187.4c0 .2.8 1 1.8 1.7 1.5 1.3 1.6 1.2.3-.4s-2.1-2.1-2.1-1.3zM462.8 187.7c.7.3 1.6.2 1.9-.1.4-.3-.2-.6-1.3-.5-1.1 0-1.4.3-.6.6zM414.5 189c-.3.5-1.3.6-2.2.3-1.3-.5-1.5-.2-1 1.1.4 1 .3 1.5-.3 1.1-.6-.3-1 .3-1 1.5s-.5 3-1 4.1c-.8 1.3-.7 1.9 0 1.9.6 0 .8.5.5 1-.4.6-1.1.7-1.7.4-.6-.4-.9-.1-.6.7.3.8.1 2.2-.4 3.2-.7 1.4-.5 2.2.8 3.1 1.1.8 1.4 1.8.9 2.6-.5.9-.4 1.1.3.6.7-.4 1.2-1.4 1.2-2.1 0-.8.9-1.9 2-2.5 1.1-.6 1.9-1.4 1.7-1.8-.3-.4-.2-1.5.2-2.4.5-1.5.8-1.3 1.8.7.8 1.9.8 2.3 0 1.9-.7-.4-.4.1.5 1.2 1.4 1.5 2 1.6 3 .5 1.1-1 .9-1.1-.7-.5-1.6.6-1.8.4-.8-.6 1.8-1.9 4.8.6 3.2 2.7-1 1.1-.8 1.2.6.7 1.4-.6 1.6-.3 1.1 1.7-.5 1.8-.5 2 .3.8.6-.9 2-1.5 3.3-1.3 1.3.1 2.6.3 3.1.3.4.1.7.5.7 1.1 0 .5-.3.9-.7.7-.5-.1-.9.2-1.1.8-.7 2.3-3.6 4.5-4.2 3.4-.8-1.2-2.1 8.1-1.7 12.1.2 1.4.8 2.4 1.4 2.3.7-.2 2 .8 3 2.1 1.6 2 2.6 2.3 6.8 2 7.9-.5 9.3-.8 8.7-1.8-.3-.5.2-.7 1.1-.3.9.3 1.9.2 2.2-.4.4-.5.3-.9-.2-.8-2.2.4-2.4-.3-.8-2.1 1-1.1 2.4-2 3-2 .7 0 1.3-.6 1.2-1.3-.1-4.2.4-5.9 1.7-5.4 1 .4 1.3.1.9-.9-.3-.7-.9-1.4-1.3-1.4-.9 0-2.6-5.8-2.2-7.3.1-.5-.6-.8-1.5-.7-3.1.4-4.4 0-3.9-.9.3-.4-.6-.6-1.9-.3-1.6.3-2.5 0-2.5-.8s-.4-.9-1.2-.3c-1.1.8-5.5 1-8.5.4-.3 0 .2-1 1.2-2.1 1.7-1.8 1.7-2.1.2-3.8-.8-.9-1.6-2.2-1.6-2.7-.1-.6-.4-1-.8-1-.5 0-1.4-.4-2.2-.9-1.1-.7-1.1-1 0-1.8s1-.9-.3-.5c-.9.3-2.3-.2-3.2-1.2-1.7-1.9-2.2-3.6-.8-2.7.5.3.9-.1.9-.9 0-1-.4-1.2-1.2-.5-.7.5-1.6.6-2 .2-.5-.4-.4 0 0 .8.8 1.3.6 1.3-.8.1-.9-.7-1.4-1.7-1.1-2.2.3-.5.1-.9-.5-.9-.5 0-1.2.4-1.6 1zm18.5 20.4c0 .3-.4.8-1 1.1-.5.3-1 .1-1-.4 0-.6.5-1.1 1-1.1.6 0 1 .2 1 .4zM368.3 195.7c-.7.3-1.3 1.1-1.3 1.9 0 .8-.4 1.4-1 1.4-.5 0-1 1.1-1 2.5 0 2.9-1.6 3.4-2.4.7-.4-1.4-.5-1.3-.4.3.1 1.1-.2 2.9-.6 4-.5 1.1-1 2.6-1.2 3.3-.2.7-1 1-1.6.7-.7-.4-.2.3 1.2 1.4 3.4 2.8 4.5 2.6 6-.9 1.8-4.2 3-4.7 5.2-1.9 1.1 1.3 1.6 1.7 1.2.9-.4-.8 1.4.6 4 3.2 4.2 4.2 5 4.7 4.8 2.6-.1-.3.5-1.2 1.4-1.8 1.2-1.1 1.3-1 .8.3-.4 1.2-.1 1.5 1.5 1.2 1.2-.2 2.5-.6 2.9-.9.5-.3.9.1.9.9s-.6 1.5-1.4 1.5c-.7 0-1.3.5-1.3 1.1 0 .8-.4.8-1.4 0-.8-.7-1.7-.8-2-.3-.9 1.4 3 2.1 4.4.8 1-.8 1-.6.1 1.1-.8 1.5-1.7 2-2.9 1.6-1.5-.6-1.6-.5-.2 1.2 1.4 1.7 1.3 1.8-.3 1.2-1.6-.6-1.6-.5-.2 1.7 2.1 3.2 5.2 2.3 7-2 1.4-3.3 4.3-5 3.1-1.8-.7 1.9 2.1 5.7 3.5 4.8.5-.3.9 0 .9.6s.5.8 1 .5c.6-.4.7-1.2.3-1.8-.4-.7 0-.6 1 .2.9.7 1.4 1.7 1.2 2.2-.3.4.3 1.7 1.5 2.9 1.1 1.1 1.5 2 1 2-.6 0-.9.3-.9.7.5 2.8-.2 5.3-1.3 4.7-.7-.5-.9-.2-.6.8.4.8.2 2.1-.3 2.9-.7 1.1-1.1 1.2-1.8.1-.5-.9-.8.1-.7 2.6 0 2.2.4 3.8.7 3.6.4-.2.9.3 1.3 1.1.3.8 1 1.5 1.5 1.5.6 0 .8-.6.6-1.3-.3-.7.8-2.7 2.5-4.5l2.9-3.3 3.1 2.7c1.6 1.5 3 3.3 3 4.1 0 .7.3 1.2.8 1.1.4 0 1.5.2 2.6.7 1.2.5 2.1.3 2.7-.6.5-.8.9-1 .9-.5s.9-.3 2.1-1.8c1.1-1.4 2.5-2.3 3.1-2 .7.4.8.2.4-.4-.5-.8.1-1.2 1.6-1.3 1.8-.1 1.9-.2.5-.6-1-.3-2.4.1-3.2.7-1.2 1-1.5 1-1.5 0 0-.8-.3-1-.6-.7-.9.8-11.4-9.9-11.4-11.6 0-.9-.3-.8-.9.2-.7 1.1-.9 1.1-1.3 0s-.8-1.1-1.9-.2c-1.1.9-1.9.8-3.4-.3-1.7-1.2-1.8-1.6-.5-2.4.9-.5 1.9-.5 2.7.2 1 .8 1.2.7.7-.6-.5-1.2-.2-1.5 1.1-1s1.6.3 1.3-.7c-.3-.8-.1-2.2.3-3.1.6-1 .5-1.9-.1-2.3-.6-.4-.8-1-.5-1.5.3-.4-.2-.7-1.2-.6-1.8.3-3-.6-10.3-7.6-4.6-4.4-4.9-4.5-6.7-2.9-1 .9-2.4 1.6-3 1.5-.7-.1-1.7-.2-2.3-.3-.5 0-.6-.9-.3-1.8.5-1.2.2-1.5-.9-1.1-1.4.6-8.9-6.2-9.6-8.7-.2-.6-1-.9-1.8-.7-.8.2-1.4-.3-1.4-1.1 0-1.4-1.4-1.7-3.7-1zm21.2 16.4c.3.3-.6 1.1-1.9 1.7-2 .9-2.4.8-2.1-.6.2-.9.4-1.8.4-1.9.2-.3 3.1.3 3.6.8zm7.9 13.1c-.3.5-1.2.4-2-.3-.7-.6-1.1-1.5-.8-2.1.3-.5 1.2-.4 2 .3.7.6 1.1 1.5.8 2.1z"/><path d="M376.3 196.7c.9 1.1 1.4 2.3 1 2.6-.3.4-.1.7.5.7 2 0 1.3-2.4-1-3.9-2.2-1.3-2.3-1.3-.5.6zM389.2 203c-2.1 1.7-2.1 1.9-.3 1.7 1.1 0 1.8-.4 1.5-.8-.2-.4.4-1.2 1.3-1.8 1-.6 1.4-1 .8-1-.5 0-2 .8-3.3 1.9zM432.5 203.9c-.3.5-.1 1.2.5 1.6.5.3 1-.1 1-.9 0-1.8-.6-2.1-1.5-.7zM437 205c0 .5.5 1 1.1 1 .5 0 .7-.5.4-1-.3-.6-.8-1-1.1-1-.2 0-.4.4-.4 1zM412.5 208.1c-.4.6-.4 1.3-.1 1.6.3.4.6.1.6-.6s.5-.9 1.2-.5.8.3.4-.4c-.9-1.5-1.3-1.5-2.1-.1zM367.6 209.6c-.5 1.4-.4 1.5.9.4 1.7-1.4 1.9-2 .6-2-.5 0-1.2.7-1.5 1.6zM468.6 209.3c.3 1 .9 1.5 1.2 1.2.3-.3 0-1.1-.7-1.8-1-.9-1.1-.8-.5.6zM350 212c-.8.5-1 1-.5 1 .6 0 1.7-.5 2.5-1s1.1-1 .5-1c-.5 0-1.7.5-2.5 1zM424.9 212.3c.6.8.7 1.8.3 2.2-.4.5-.2.5.5.1 1.4-.8.6-3.6-.9-3.6-.7 0-.6.5.1 1.3zM344 212c-.1.3-.3 1.4-.5 2.4-.2 1.1-1 2.3-1.8 2.8-.9.4-1.3 1.6-1 2.7.7 2.7-1.3 3.5-3 1.1-1.2-1.8-1.5-1.8-2-.6-.4.9-.1 1.5.6 1.3.6-.1 1.3.8 1.5 1.9.2 1.5-.3 2.3-1.7 2.7-2.4.6-2.9 3.7-.6 3.7.9 0 1.2.6.9 1.5-.5 1.3-.9 1.3-2.3.3-1.3-1.1-1.3-1 .1.8 1.6 1.9 1.6 2-.2 2-1 0-1.6-.4-1.4-.8.3-.4-.7-.8-2.1-.8-1.8 0-2.9-.6-3.2-2-.3-1.1-.9-1.7-1.4-1.4-.5.3-.6 1-.3 1.6.4.6-.1.8-1.5.3-1.2-.4-2.1-.2-2.1.4 0 .6-.9 1.1-2 1.1-1.2 0-3.1.7-4.3 1.5-1.2.8-3.7 1.5-5.5 1.7-2.6.2-3 .5-1.9 1.3 1.3.9 1.2 1.4-.3 3.2-1 1.2-2.1 1.9-2.4 1.5-.4-.3-.4.1-.1 1 .4.9.1 1.9-.5 2.3-.6.4-.2 1.3 1.2 2.5 1.3 1.1 2 1.9 1.6 2-.5 0 .2 1 1.4 2.2 1.3 1.3 2.9 2.1 3.6 2 .9-.2 1.1.1.6.9-.4.8-.3 1 .4.5.7-.4 1.9-.3 2.8.2 1 .6 3.1.4 5.8-.5 2.2-.8 4.9-1.6 5.9-1.8 1.8-.4 2.3 1 .7 2-.6.4-.7 1.2-.4 1.8.5.8.3.8-.7-.1-.7-.6-2.1-1.2-3.1-1.2-1.4 0-1.3.4.8 2.5 1.5 1.5 2.3 3.2 2 4.1-.3.9-.6 2-.6 2.5 0 .6-.4.8-.8.5-.5-.3-.9.1-.9.8 0 .7.6 1.3 1.3 1.3.7 0 1.3-.3 1.2-.6-.2-2 .3-3.1 1.2-2.6.6.4.8 1.1.5 1.6-.4.5-.1.9.5.9s.8.4.5 1c-.3.6.1.7 1 .4.9-.4 1.5-.3 1.4.2-.4 2.3.3 3.2 2.1 2.7 1.1-.3 3.3 0 5 .6 1.8.6 2.8.6 2.5.1-.4-.6.3-1 1.5-1s3.4-.7 4.9-1.5c1.6-.8 3.1-1.1 3.5-.8.3.4.6.1.6-.6s.5-.9 1.2-.5c.6.4.8.3.4-.4-.3-.6-.1-1.4.6-1.9 1.7-1.1 3.8-4.9 3.8-6.9 0-5.8-8.1-11.2-14.7-9.9-2.1.4-5 .8-6.5.9-1.5 0-3 .7-3.3 1.4-.3.8 0 1 .7.6.7-.5.8-.3.4.5-.5.7-1.5 1-2.3.7-.8-.3-1.1-.2-.8.3.3.5.1 1.2-.4 1.5-.5.3-1.2-.1-1.5-1-.8-2.2-.8-2.4.7-2.4.7 0 1.8-.9 2.5-2 .7-1.2 1.6-1.9 2-1.6 1.6 1 .9-8.9-.7-10.2-.9-.8-1-1.1-.3-.7 1.1.5 1.7-.6 1.3-2.8-.2-1.5 1.8-.6 2.2 1 .3 1 .5.4.4-1.2-.2-2.4.2-2.9 1.7-2.7 1 .2 1.5-.1 1.2-.7-.4-.6.2-1.9 1.3-3s1.6-2.2 1.3-2.6c-.4-.3.1-.3 1.1.1.9.3 1.4 1 1.1 1.5-.3.5 0 .9.6.9 1.5 0 4 2.6 4 4.2 0 1 .2 1 .8 0 .6-.9 1.3-.7 2.8 1 1.9 2.2 1.9 2.3-.1.8-1.8-1.4-1.9-1.4-.6.2.7 1 1.7 1.6 2.1 1.3.5-.3 1-.2 1.3.2.2.5.2.2.1-.5-.2-.6.3-1.2 1-1.2.8 0 1.6-.5 1.8-1 .2-.6 1.3-1.2 2.4-1.2 1.2-.1 2.1-.8 2-1.5-.1-.8-.6-1.3-1-1.2-1.2.2-6.6-5.3-6-6.2.2-.4-.5-1-1.6-1.4-1.1-.3-1.9-1.1-1.7-1.7.1-.6-.6-1.2-1.6-1.3-1-.2-2.7-1.1-3.7-2-1-.9-2.3-1.4-2.9-1.1-.5.3-1.2-.2-1.4-1.1-.3-1-.6-1.6-.7-1.3zM403.9 212.2c-.6 2.1-.5 3.8.1 3.8.5 0 .8-.9.7-2-.1-1.7-.5-2.6-.8-1.8zM358.7 214.7c.3.7.9 1 1.4.7 1.4-.8 1.1-2.1-.5-2.1-.8 0-1.2.6-.9 1.4zM374.7 216c-.3 1.1-.2 2 .3 2 1.2 0 2.1-2.8 1.1-3.5-.5-.2-1.1.4-1.4 1.5z"/><path d="M335 224c-.9.6-1 1-.3 1 .6 0 1.5-.5 1.8-1 .8-1.2.4-1.2-1.5 0zM360.2 224.4c.7.8 1.5 1.2 1.7 1.1.5-.6-1-2.5-2-2.5-.5 0-.4.6.3 1.4zM391.6 225.3c.3 1 .9 1.5 1.2 1.2.3-.3 0-1.1-.7-1.8-1-.9-1.1-.8-.5.6zM328.8 228.7c.7.3 1.6.2 1.9-.1.4-.3-.2-.6-1.3-.5-1.1 0-1.4.3-.6.6zM372.5 229.1c-1.6.5-3.8.7-4.7.5-1.1-.2-1.8.2-1.8 1s-.6 1.4-1.2 1.3c-2.6-.3-3.8.1-3.5 1.3.1.7-.5 1.1-1.3 1-.8-.2-1.2 0-.8.4.4.3-.2 1.8-1.2 3.2-1.1 1.3-2 3.5-2 4.8 0 1.2-.6 2.5-1.2 2.7-.9.4-.7.6.3.6.9.1 2.4 1 3.4 2.1 1.7 1.9 1.7 1.9-.4 1.5-1.2-.2-1.9 0-1.6.6.4.5 1.1.7 1.6.4.5-.4.9.2 1 1.2 0 1 .3 1.3.6.5.2-.6.9-1.2 1.4-1.2.6 0 .8.4.5.8-.3.5 2.3.8 5.7.6 9.4-.4 10.7-.7 10.7-2.4.1-1.2.3-1.1 1.1.3.6 1 .7 2.6.3 3.5-.4.9-.8 2.1-.8 2.5-.1.4-.8 1.2-1.6 1.7s-1.1 1-.6 1c.6 0 .1.7-1 1.6-1 .8-1.2 1.2-.4.8 1.3-.7 1.3-.5.1.9-1 1.3-1.1 2-.2 3.1 1.7 2 5.1 1.7 4.3-.4-.5-1.2-.3-1.3.9-.4.8.7 2.2.8 3.4.3 1.1-.4 1.4-.8.6-.8-1.1-.1-1.1-.4 0-1.9 1.1-1.4 1.1-1.5-.1-.5-2.1 2-3.2 1.5-1.8-.7 1.2-1.9 1.3-1.9 4 .7 1.6 1.5 2.8 3.4 2.9 4.2 0 1.2.2 1.2.6.3.4-1 .9-.9 2.4.4 2.1 1.9 2.5 3.4.8 3.4-.5 0-.7-.5-.3-1.2.4-.7.3-.8-.5-.4-.6.4-.9 1.1-.6 1.6.7 1.1 4.5.9 4.5-.3 0-.4.5-.5 1.2-.1.6.4.8.3.4-.4-.3-.6.3-2 1.6-3.1l2.2-2.1-2.2-2.3c-1.2-1.3-2.2-2.9-2.2-3.7 0-.7-.3-1.1-.6-.7-.3.3-1.7-.7-3.1-2.3-1.3-1.6-3-2.9-3.6-2.7-.7.1-1.1-.4-.9-1.1.1-.8-.2-1.1-.7-.8-1.6 1.1-2.3-1.4-.9-3.2 1.1-1.5 1.1-1.6-.3-.4-.9.7-2.3 1.1-3 1-.8-.2-1.4.5-1.4 1.4 0 2.3-1.1 3.2-1.8 1.5-.8-2 2-5.7 3.7-5.1 1.8.7 2.4-2.1 1.5-6.3-.4-2.1-.3-3.4.5-3.6.8-.3.8-.8-.1-1.8-1-1-1.3-1-1.3-.1 0 1-.3 1-1.4 0-.8-.7-1.2-1.6-1-1.9.2-.4-1-.9-2.7-1.3-1.7-.3-2.8-1-2.4-1.6.7-1.2-.9-1.2-5 .1zM386 230c0 .5.5 1 1.1 1 .5 0 .7-.5.4-1-.3-.6-.8-1-1.1-1-.2 0-.4.4-.4 1zM398 233.7c0 1.2.3 1.3 1.3.4.8-.6 1.6-1 1.8-.8.2.1.3 0 .1-.2-.7-1.2-3.2-.7-3.2.6zM421.9 234.7c-1.3 1.6-1.2 1.7.4.4 1.6-1.3 2.1-2.1 1.3-2.1-.2 0-1 .8-1.7 1.7zM305 237.9c0 .5.7 1.2 1.6 1.5 1.4.5 1.5.4.4-.9-1.4-1.7-2-1.9-2-.6zM353.6 239.3c.3 1 .9 1.5 1.2 1.2.3-.3 0-1.1-.7-1.8-1-.9-1.1-.8-.5.6zM352.4 243.8c-1.2.8-1.5 4.4-.4 3.7.6-.4 2.1-4.5 1.7-4.5-.1 0-.7.4-1.3.8zM338.1 245c-.1 2.5 1.3 4 2.9 3 1.3-.8 1.2-1-.2-1-.9 0-1.9-.8-2.1-1.8-.3-1.2-.5-1.3-.6-.2zM408.4 244.9c.4.6 1.6 1.6 2.8 2.2 1.5.8 1.8.8 1.4 0-.4-.6-1.6-1.6-2.8-2.2-1.5-.8-1.8-.8-1.4 0zM406 246.2c0 .9-.6 1.9-1.2 2.2-.7.3-.2.3 1.1 0 1.7-.5 2.1-.3 1.6.6-.5.9-.4 1.1.4.6.9-.6.9-1.2-.1-2.4-.7-1-1.4-1.9-1.5-2.1-.2-.2-.3.3-.3 1.1zM294 248c0 .5.5 1 1.1 1 .5 0 .7-.5.4-1-.3-.6-.8-1-1.1-1-.2 0-.4.4-.4 1zM423.5 247.9c-.6 1.1 1.3 2.6 2.2 1.7.4-.3.1-.6-.6-.6s-.9-.5-.6-1c.3-.6.4-1 .1-1-.3 0-.7.4-1.1.9zM428 248c-.8.5-1.2 1.2-.9 1.5.4.3 1.2-.1 1.9-1 1.4-1.7 1.1-1.9-1-.5zM289.5 250.9c-1.1.5-2.8.7-3.7.6-1-.2-1.5.2-1.2 1 .5 1.2-4.4 5.2-5.8 4.7-.5-.1-.8.5-.8 1.4 0 .8-.4 1.3-.9 1-1.2-.8.4 6.1 1.8 7.8.6.7 1 1.5.8 1.7-.1.2 0 .3.2.2.2-.2 1 .2 1.8.8 1 .9 1.1 1.5.1 2.8-1 1.3-1 1.4.2.3.8-.6 2.1-1.2 3-1.2 1.2 0 1.2.2.2.9-2.6 1.6 9.3-.1 13-1.9 2.1-.9 3.5-1.3 3.2-.9-.3.5.2.9 1.1.9 1.1 0 1.5-.5 1.1-1.5-.3-1 .3-1.9 1.7-2.6 1.4-.6 2.7-2.5 3.3-4.8.8-3 .7-4-.8-5.6-1-1-1.8-2.3-1.8-2.9 0-2.6-12-4.5-16.5-2.7zM123.6 253.6c-7.4 2.7-13 7.8-17.4 15.9l-2.7 5v176l2.4 5c1.4 2.7 2.7 5.4 2.9 5.9.3.5-.1.5-.9 0-1.2-.7-1.2-.5 0 .9.7.9 1.7 1.5 2.1 1.2.4-.2 1.9.9 3.5 2.5 4.5 4.7 11.9 7.4 20.5 7.4 6.4.1 8.4-.4 13.5-2.9 3.3-1.6 6.5-2.8 7-2.6.6.1.7 0 .3-.4-.9-1 3.3-5.5 4.5-4.8.6.3.7.1.4-.4-.4-.6.6-3.3 2.1-5.9l2.7-4.9.3-85.5c.2-61.3 0-87-.8-90.8-.7-3.1-2.5-7.1-4.5-9.6-1.8-2.4-3-4.7-2.7-5.1.4-.4.2-.5-.3-.3-.6.1-2.6-.9-4.6-2.4-7.3-5.6-19.6-7.4-28.3-4.2z"/><path d="M375.7 253.1c.7.7 1.5 1 1.8.7.3-.3-.2-.9-1.2-1.2-1.4-.6-1.5-.5-.6.5zM430.6 253.4c-2.2.8-4.4 1.2-5 .9-.6-.3-.8-.3-.4.1.4.5-1.2 2.2-3.5 4-5.5 4.2-10.3 11.4-11.6 17.6-.7 3.4-1.1 31.8-1.1 86.8 0 90-.1 89.1 6.1 97.7 11.7 16.3 34.3 17.7 47.8 2.9 8.6-9.4 8.1-3.4 8.1-100.8-.1-71.2-.3-86.8-1.5-90-.8-2.2-1.1-4.4-.8-5 .3-.6.3-.8-.2-.4-.4.4-2.4-1.5-4.6-4.2-5.2-6.6-13-10.4-22.4-10.7-4.3-.2-8.5.2-10.9 1.1zM279.8 253.7c.6.2.9 1 .6 1.5-.4.7-.2.8.5.4 1.3-.9.5-2.6-1.2-2.5-.9 0-.8.2.1.6zM399.6 259.9c-.3.5 0 1.1.7 1.4.8.3 1.4-.1 1.4-.9 0-1.6-1.3-1.9-2.1-.5zM403 263c-.8.5-1.2 1.2-.9 1.5.4.3 1.2-.1 1.9-1 1.4-1.7 1.1-1.9-1-.5zM318.8 263.7c.7.3 1.6.2 1.9-.1.4-.3-.2-.6-1.3-.5-1.1 0-1.4.3-.6.6zM256.6 268.1c.3.5.1.9-.4.9-.6 0-1.3.7-1.6 1.6-.3.8-.2 1.2.4.9.5-.3.7.1.4.9-.9 2.3-5 4.6-7.5 4.1-1.7-.4-2-.2-1.1.7 1.4 1.4 1.6 4.2.4 3.4-.5-.3-.9.1-.9.9 0 1.1.4 1.2 1.3.4.7-.6 1.7-.8 2.3-.5 1.4.9 4.2-.5 3.4-1.7-.4-.6.2-.8 1.5-.5 1.2.4 2.5.2 2.8-.3.3-.5 1-.7 1.5-.3.5.3.6 1 .3 1.6-.4.7-.2.8.4.4 1.1-.7.6-3.6-.7-3.6-.4 0-1.2.5-1.9 1.2-.9.9-1.2.9-1.2 0 0-.7.7-1.5 1.6-1.9 1.8-.7 6.6 3.5 5.7 5.1-.3.6-.2.8.2.3.5-.4 1.6 0 2.6.9 1.4 1.2 2.4 1.3 5.5.5 2-.6 4.1-.8 4.5-.5 1.6.9 1.9-1.5.4-3-.9-.8-1.7-1.9-1.8-2.3-.1-.4-.8-.7-1.5-.7-.7.1-1.1-.1-.8-.4.3-.3-.4-1-1.7-1.7-1.2-.6-2.1-1.7-1.9-2.4.1-.7-.1-1-.6-.7-.9.5-4.3-2.9-3.6-3.7.2-.2-1.6-.4-4-.4-2.5 0-4.3.4-4 .8zM392.5 273c.3.5.8 1 1.1 1 .2 0 .4-.5.4-1 0-.6-.5-1-1.1-1-.5 0-.7.4-.4 1zM296.1 278.6c0 1.1.3 1.4.6.6.3-.7.2-1.6-.1-1.9-.3-.4-.6.2-.5 1.3zM332.2 280c-.7 1.1-.8 2-.3 2 .9 0 2.4-3 1.8-3.6-.1-.2-.8.6-1.5 1.6zM239 283.4c0 .2.8 1 1.8 1.7 1.5 1.3 1.6 1.2.3-.4s-2.1-2.1-2.1-1.3zM189.7 552.2c-.7.4-5.9.7-11.7.7-10.3 0-40.2 1-49 1.7-2.5.2-13 .8-23.5 1.5-10.4.6-21 1.3-23.5 1.4-6.6.4-16.4 1.7-17.3 2.2-.4.3-1.5-.1-2.4-.9-1.4-1.1-1.6-1.1-.8.1.6 1.1.2 1.3-2.1.7-1.9-.4-2.4-.3-1.5.2.9.7-.1 1.2-3.3 1.6-5.2.8-8.3 3.9-6.3 6.1.7.7 1.4.9 1.5.4.2-.5 1-.9 1.8-.9.9 0 1.2.4.9 1-.3.6.1.7 1 .4.8-.4 2.8-.2 4.3.4 1.5.6 6.3 1.3 10.7 1.6 4.4.4 9.8.9 12 1.1 28.9 3.7 102.7 5.9 205.5 5.9 108 .1 161.2-.9 204.5-3.9 4.4-.3 10.9-.7 14.5-1 6.1-.4 20.7-1.9 29.5-3.1 2.2-.3 5.2-.6 6.7-.7 1.4-.1 2.4-.6 2-1.1-.3-.5.5-.7 1.6-.4 1.4.4 2 .2 1.5-.5-.4-.7 0-.8 1.2-.3 1.6.6 1.7.5.3-1.6-1-1.5-3.2-2.7-6.4-3.4-3-.6-4.3-1.3-3.4-1.7.8-.3.2-.3-1.4 0-2.3.5-2.7.3-2.1-.8.8-1.2.6-1.2-.8-.1-.9.8-2 1.1-2.4.9-2.5-1.5-56.7-5-106.3-6.9-33.7-1.2-233.5-1.7-235.3-.6zM548.5 560c.3.5.8 1 1.1 1 .2 0 .4-.5.4-1 0-.6-.5-1-1.1-1-.5 0-.7.4-.4 1zM46.1 563.6c0 1.1.3 1.4.6.6.3-.7.2-1.6-.1-1.9-.3-.4-.6.2-.5 1.3zM548.5 563c.3.5.8 1 1.1 1 .2 0 .4-.5.4-1 0-.6-.5-1-1.1-1-.5 0-.7.4-.4 1zM510.8 574.7c.7.3 1.6.2 1.9-.1.4-.3-.2-.6-1.3-.5-1.1 0-1.4.3-.6.6z"/></svg>